<?xml version="1.0" encoding="utf-8"?>
<!-- Generator: Adobe Illustrator 22.1.0, SVG Export Plug-In . SVG Version: 6.00 Build 0)  -->
<svg version="1.1" id="Layer_1" xmlns="http://www.w3.org/2000/svg" xmlns:xlink="http://www.w3.org/1999/xlink" x="0px" y="0px"
	 viewBox="0 0 781 189" style="enable-background:new 0 0 781 189;" xml:space="preserve">
<style type="text/css">
	.st0{fill:#FFFFFF;}
</style>
<g>
	<path d="M447.5,24.3l-36.1,49.6c-2.9,4-9.2,1.9-9.2-3V27.3c0-2.8-2.3-5.1-5.1-5.1h-14.2c-2.8,0-5.1,2.3-5.1,5.1v134.4
		c0,2.8,2.3,5.1,5.1,5.1h14.2c2.8,0,5.1-2.3,5.1-5.1v-33.4c0-1.1,0.3-2.1,1-3l8.2-11.3c1.6-2.2,4.6-2.7,6.9-1.3l23.9,15.4
		c1.5,0.9,2.3,2.6,2.3,4.3v29.3c0,2.8,2.3,5.1,5.1,5.1h14.2c2.8,0,5.1-2.3,5.1-5.1v-40.5c0-1.7-0.9-3.3-2.3-4.3l-34.5-22.2
		c-2.5-1.6-3.1-4.9-1.4-7.3l41.5-57.1c2.4-3.4,0-8.1-4.1-8.1h-16.5C450,22.2,448.5,23,447.5,24.3z"/>
	<path d="M112.2,21.7H95.7c-1.6,0-3.2,0.8-4.1,2.1L54.8,74.4c-2.9,4-9.2,1.9-9.2-3V26.8c0-2.8-2.3-5.1-5.1-5.1H26.3
		c-2.8,0-5.1,2.3-5.1,5.1v135.3c0,2.8,2.3,5.1,5.1,5.1h14.2c2.8,0,5.1-2.3,5.1-5.1v-33.4c0-1.1,0.3-2.1,1-3l8.2-11.3
		c1.6-2.2,4.6-2.7,6.9-1.3l23.9,15.4c1.5,0.9,2.3,2.6,2.3,4.3v29.3c0,2.8,2.3,5.1,5.1,5.1h14.2c2.8,0,5.1-2.3,5.1-5.1v-40.5
		c0-1.7-0.9-3.3-2.3-4.3L75.5,95.2c-2.5-1.6-3.1-4.9-1.4-7.3l42.3-58.1C118.8,26.5,116.4,21.7,112.2,21.7z"/>
	<path d="M623.8,45.9h37.5c2.8,0,5.1-2.3,5.1-5.1V26.6c0-2.8-2.3-5.1-5.1-5.1h-61.9c-2.8,0-5.1,2.3-5.1,5.1v81.9v24.4v29.5
		c0,2.8,2.3,5.1,5.1,5.1h14.2c2.8,0,5.1-2.3,5.1-5.1V138c0-2.8,2.3-5.1,5.1-5.1H647c2.8,0,5.1-2.3,5.1-5.1v-14.2
		c0-2.8-2.3-5.1-5.1-5.1h-23.1c-2.8,0-5.1-2.3-5.1-5.1V51C618.7,48.2,621,45.9,623.8,45.9z"/>
	<path d="M553.5,21.5h-43.4c-2.4,0-4.4,1.6-5,4l-18.8,81.5c-0.1,0.4-0.1,0.8-0.1,1.1v54.4c0,2.8,2.3,5.1,5.1,5.1h14.2
		c2.8,0,5.1-2.3,5.1-5.1V137c0-2.8,2.3-5.1,5.1-5.1h32.1c2.8,0,5.1,2.3,5.1,5.1v25.5c0,2.8,2.3,5.1,5.1,5.1h14.2
		c2.8,0,5.1-2.3,5.1-5.1V108c0-0.4,0-0.8-0.1-1.1l-18.8-81.5C557.9,23.1,555.9,21.5,553.5,21.5z M530.7,45.9h2.2c2.4,0,4.5,1.7,5,4
		l11.4,51.4c0.7,3.2-1.7,6.2-5,6.2h-25c-3.3,0-5.7-3-5-6.2l11.4-51.4C526.3,47.5,528.3,45.9,530.7,45.9z"/>
	<path d="M735.9,21.5h-43.4c-2.4,0-4.4,1.6-5,4l-18.8,81.5c-0.1,0.4-0.1,0.8-0.1,1.1v54.4c0,2.8,2.3,5.1,5.1,5.1H688
		c2.8,0,5.1-2.3,5.1-5.1V137c0-2.8,2.3-5.1,5.1-5.1h32.1c2.8,0,5.1,2.3,5.1,5.1v25.5c0,2.8,2.3,5.1,5.1,5.1h14.2
		c2.8,0,5.1-2.3,5.1-5.1V108c0-0.4,0-0.8-0.1-1.1l-18.8-81.5C740.4,23.1,738.3,21.5,735.9,21.5z M713.1,45.9h2.2c2.4,0,4.5,1.7,5,4
		l11.4,51.4c0.7,3.2-1.7,6.2-5,6.2h-25c-3.3,0-5.7-3-5-6.2l11.4-51.4C708.7,47.5,710.8,45.9,713.1,45.9z"/>
	<g>
		<path d="M281.1,21.8H274c-2.8,0-5.1,2.3-5.1,5.1v135.1c0,2.8,2.3,5.1,5.1,5.1h7.1c44,0,79.7-32.7,79.7-73S325,21.8,281.1,21.8z
			 M300,142.3c-3.3,1.1-6.7-1.4-6.7-4.8V50.9c0-3.5,3.4-6,6.7-4.8c21.2,7.2,36.4,26,36.4,48.1S321.2,135.1,300,142.3z"/>
	</g>
	<ellipse cx="188.7" cy="94.5" rx="62" ry="74.4"/>
	<g>
		<path d="M189.3,150.9c-8,0-19.6-1.8-29.1-10.3c-10.7-9.5-16.1-25.1-16.1-46.2c0-31.6,19.6-56.3,44.7-56.3
			c20.3,0,32.8,13.1,39.2,41.1c0.4,1.7,5,13.4,6.3,15.6c2.2,3.9,1.8,8.8-1.1,12.2c-1.8,2.1-4.2,2.9-5.9,3.4l0,0
			c0.5,10.5,1.1,20.5-7.8,28.7C211.6,146.5,200.4,150.9,189.3,150.9z"/>
		<path class="st0" d="M188.8,40.9c18.8,0,30.3,12.4,36.4,38.9c0.4,1.9,5.2,13.9,6.6,16.4c1.6,2.9,1.3,6.5-0.8,9
			c-1.3,1.6-3.2,2.1-4.8,2.5c-0.6,0.2-1.5,0.4-1.9,0.6c0,0,0,0.1,0,0.2c0,0.7,0.1,1.3,0.1,2c0.5,10.3,1,19.2-6.9,26.5
			c-7.3,6.8-17.9,10.9-28.2,10.9c-7.5,0-18.4-1.7-27.2-9.5c-10.1-9-15.2-23.8-15.2-44.1C146.9,64.4,165.3,40.9,188.8,40.9
			 M188.8,35.3c-26.6,0-47.5,26-47.5,59.2c0,21.9,5.7,38.2,17.1,48.3c10.2,9.1,22.5,11,31,11c11.8,0,23.8-4.7,32.1-12.4
			c9.2-8.6,9.3-18.8,8.8-28.8c1.7-0.6,3.6-1.7,5.1-3.6c3.6-4.3,4.2-10.5,1.4-15.4c-1.1-2-5.5-13-6-14.9
			C224,49.5,210.3,35.3,188.8,35.3L188.8,35.3z"/>
	</g>
	<path class="st0" d="M221.5,108.8c0.5,11.1,1.5,19.4-5.9,26.3c-6.8,6.4-16.6,10.2-26.3,10.2c-14.8,0-39.5-6.6-39.5-50.8
		c0-28.4,17.1-50.7,39-50.7c18.2,0,28.2,12.9,33.6,36.7c0.5,2.3,5.3,14.4,6.9,17.1c1.1,1.9,0.8,4.2-0.5,5.8
		C226.9,105.7,221.3,104.5,221.5,108.8z"/>
	<g>
		<g>
			<line class="st0" x1="220.8" y1="89.7" x2="223.8" y2="89.7"/>
			<path d="M223.6,87.9l-1.3,0c0,0,0,0,0,0c-0.6-1.9-2.1-3.5-4.2-4.3c-0.7-0.2-1.5-0.3-2.2-0.3l-12.1,0h-1.1h-19c-3,0-5.9,1.2-8,3.3
				l-6.3,6.3c-0.8,0.8-0.8,2.1,0,2.8c0.3,0.3,0.7,0.4,1.1,0.4c0.5,0,0.9-0.2,1.3-0.5l6.4-6.4c1.5-1.5,3.5-2.3,5.5-2.3l10.4,0
				c1.8,0,3.8,13.4,3.8,13.4c0.5,2.9,3,5,5.8,5.3l10.4,0.1c0.2,0,0.4,0,0.6,0c3.3,0,6.1-2.4,6.5-5.7l1.2-8.5h1.3
				c1.1,0,1.9-0.9,1.8-2C225.4,88.5,224.5,87.9,223.6,87.9z M217.8,99.5c-0.2,1.6-1.7,2.8-3.3,2.7l-10.4-0.1
				c-1.3-0.2-2.4-1.2-2.6-2.5l-1.8-9.1c-0.2-0.9,0.1-1.8,0.6-2.5c0.6-0.7,1.4-1.1,2.4-1.1h1.1l12.2,0c0.5,0,1.1,0.1,1.5,0.4
				c0.9,0.5,1.4,1.4,1.6,2.3c0,0.1,0,0.1,0,0.2c0,0.1,0,0.3,0,0.4c0,0.1,0,0.1,0,0.2L217.8,99.5z"/>
		</g>
	</g>
</g>
</svg>
